<svg width="28" height="26" viewBox="0 0 28 26" fill="none" xmlns="http://www.w3.org/2000/svg">
<path d="M3.85767 16.658C3.65636 16.658 3.48684 16.53 3.42327 16.3379L0.361254 6.57479C0.234111 6.16933 0.308277 5.73185 0.551966 5.39041C0.806251 5.04897 1.18768 4.84624 1.62208 4.84624H21.806C21.9755 4.84624 22.1132 4.9316 22.1874 5.07031L23.5118 0.620884C23.5648 0.428822 23.7449 0.300781 23.9462 0.300781H27.2413C27.4956 0.300781 27.6969 0.503513 27.6969 0.759595C27.6969 1.01568 27.4956 1.21841 27.2413 1.21841H24.2746L19.8458 16.1565L22.1238 19.9657C22.2086 20.1045 22.2086 20.2858 22.1238 20.4246C22.0391 20.5633 21.8907 20.6593 21.7318 20.6593H20.6087C21.0537 21.1501 21.3292 21.801 21.3292 22.5266C21.3292 24.0524 20.0895 25.3008 18.5744 25.3008C17.0593 25.3008 15.8197 24.0524 15.8197 22.5266C15.8197 21.0007 16.0951 21.1608 16.5401 20.6593H8.011C8.45599 21.1501 8.73147 21.801 8.73147 22.5266C8.73147 24.0524 7.49183 25.3008 5.97672 25.3008C4.4616 25.3008 3.22196 24.0524 3.22196 22.5266C3.22196 21.0007 4.4616 19.7523 5.97672 19.7523H20.9477L19.1042 16.6794H3.85767V16.658ZM16.752 22.5052C16.752 23.5295 17.5785 24.3725 18.6062 24.3725C19.6339 24.3725 20.4604 23.5402 20.4604 22.5052C20.4604 21.4702 19.6339 20.638 18.6062 20.638C17.5785 20.638 16.752 21.4702 16.752 22.5052ZM4.15434 22.5052C4.15434 23.5295 4.98077 24.3725 6.0085 24.3725C7.03624 24.3725 7.86266 23.5402 7.86266 22.5052C7.86266 21.4702 7.03624 20.638 6.0085 20.638C4.98077 20.638 4.15434 21.4702 4.15434 22.5052ZM22.0073 5.71051C21.9437 5.74252 21.8801 5.75319 21.806 5.75319H1.62208C1.48435 5.75319 1.3678 5.81721 1.28304 5.92391C1.19828 6.03061 1.17709 6.16933 1.21947 6.29737L4.18613 15.7404H19.03L22.0073 5.71051Z" fill="#36080A" stroke="#36080A" stroke-width="0.6"/>
</svg>
