<svg width="62" height="5" viewBox="0 0 62 5" fill="none" xmlns="http://www.w3.org/2000/svg">
<path d="M49.1455 0.800781C53.0157 0.652808 56.9398 0.397599 60.8535 0.545898C60.8577 0.545898 60.8621 0.545807 60.8662 0.545898C60.8684 0.545983 60.8708 0.545814 60.873 0.545898L60.8721 0.546875C61.049 0.5527 61.1751 0.640451 61.2451 0.711914C61.3132 0.781575 61.3527 0.856721 61.374 0.904297C61.4175 1.00125 61.4413 1.10712 61.4561 1.19141C61.4871 1.36936 61.5 1.58732 61.5 1.79004C61.5 1.99265 61.4871 2.20985 61.4561 2.3877C61.4413 2.47196 61.4175 2.57782 61.374 2.6748C61.3527 2.72238 61.3132 2.79753 61.2451 2.86719C61.1787 2.93506 61.0617 3.01796 60.8984 3.03125L60.8994 3.03223C57.0532 3.38782 53.1931 3.36709 49.377 3.41309L47.7441 3.43848C39.9849 3.58747 32.2387 3.69334 24.4893 3.88477H24.4873C22.5409 3.92724 20.5949 3.99085 18.6465 4.05469C16.6989 4.1185 14.7485 4.18297 12.7979 4.22559C10.8512 4.26807 8.8998 4.31103 6.95312 4.35352L6.95215 4.35254C5.04813 4.41516 3.03531 4.61051 1.04883 4.41504L0.597656 4.37012V4.05469C0.56139 3.97296 0.542714 3.8893 0.532227 3.83008C0.509097 3.69947 0.5 3.5454 0.5 3.40625C0.500011 3.26732 0.509167 3.11383 0.532227 2.9834C0.542973 2.92272 0.56153 2.83557 0.599609 2.75195C0.618261 2.711 0.654611 2.64183 0.719727 2.57617C0.782337 2.51305 0.89219 2.43495 1.04492 2.41992C3.26 2.09878 5.51743 2.20274 7.64258 2.14062C9.82363 2.07701 12.0162 1.99182 14.207 1.94922H14.209C18.1046 1.88545 21.994 1.75783 25.8926 1.65137C29.7739 1.5443 33.5932 1.58747 37.4287 1.24902L38.1621 1.18555C41.8326 0.89262 45.5301 0.939009 49.1455 0.800781Z" fill="url(#paint0_linear_10207_20118)" stroke="url(#paint1_linear_10207_20118)"/>
<defs>
<linearGradient id="paint0_linear_10207_20118" x1="62.2916" y1="4.28767" x2="60.4201" y2="-7.45714" gradientUnits="userSpaceOnUse">
<stop stop-color="#EADED2"/>
<stop offset="0.302083" stop-color="#FFB490"/>
<stop offset="1" stop-color="#F18477"/>
</linearGradient>
<linearGradient id="paint1_linear_10207_20118" x1="62.2916" y1="4.28767" x2="60.4201" y2="-7.45714" gradientUnits="userSpaceOnUse">
<stop stop-color="#EADED2"/>
<stop offset="0.302083" stop-color="#FFB490"/>
<stop offset="1" stop-color="#F18477"/>
</linearGradient>
</defs>
</svg>
