<svg width="20" height="22" viewBox="0 0 20 22" fill="none" xmlns="http://www.w3.org/2000/svg">
<path d="M17.5012 8.07467C17.5012 12.4994 12.4541 18.3518 10.6453 20.3203C10.3012 20.6927 9.71002 20.6927 9.35708 20.3203C7.53943 18.3606 2.49236 12.526 2.50119 8.07467C2.50119 3.94254 5.86295 0.599609 10.0012 0.599609C14.1394 0.599609 17.5012 3.95141 17.5012 8.07467Z" stroke="#36080A" stroke-width="1.2" stroke-linecap="round" stroke-linejoin="round"/>
<path d="M10.0025 11.7461C11.9517 11.7461 13.5319 10.1581 13.5319 8.19923C13.5319 6.24034 11.9517 4.65234 10.0025 4.65234C8.05322 4.65234 6.47305 6.24034 6.47305 8.19923C6.47305 10.1581 8.05322 11.7461 10.0025 11.7461Z" stroke="#36080A" stroke-width="1.2" stroke-linecap="round" stroke-linejoin="round"/>
</svg>
