<svg width="24" height="26" viewBox="0 0 24 26" fill="none" xmlns="http://www.w3.org/2000/svg">
<path d="M6.24035 8.96419V2.00378C6.24035 1.23086 6.87285 0.599609 7.64798 0.599609H16.3728L22.9997 7.03086V23.1954C22.9997 23.9684 22.3672 24.5996 21.5921 24.5996H7.64592C6.87079 24.5996 6.23828 23.9684 6.23828 23.1954V18.8454" stroke="#36080A" stroke-width="1.2" stroke-miterlimit="2.6"/>
<path fill-rule="evenodd" clip-rule="evenodd" d="M2.49553 8.96289H14.3581C15.1332 8.96289 15.7658 9.59414 15.7658 10.3671V17.0129C15.7658 17.7858 15.1332 18.4171 14.3581 18.4171H2.49553C1.7204 18.4171 1.08789 17.7858 1.08789 17.0129V10.3671C1.08789 9.59414 1.7204 8.96289 2.49553 8.96289Z" stroke="#36080A" stroke-width="1.2" stroke-miterlimit="2.6"/>
<path fill-rule="evenodd" clip-rule="evenodd" d="M16.6236 0.834846L22.9094 7.00776C22.9238 7.02235 22.928 7.0411 22.9197 7.05985C22.9114 7.0786 22.8949 7.08901 22.8742 7.08901L16.6897 6.88693C16.6649 6.88693 16.6443 6.8661 16.6443 6.8411L16.543 0.870263C16.543 0.851513 16.5533 0.834846 16.5719 0.826513C16.5905 0.81818 16.6091 0.822346 16.6236 0.83693V0.834846Z" stroke="#36080A" stroke-width="1.2" stroke-miterlimit="2.6" stroke-linejoin="round"/>
<path d="M4.25781 12.1777V12.3232H3.94727V12.1777H4.25781Z" fill="#36080A" stroke="#36080A"/>
</svg>
