<svg width="22" height="23" viewBox="0 0 22 23" fill="none" xmlns="http://www.w3.org/2000/svg">
<path d="M20.9878 17.4081C20.9878 17.7701 20.9078 18.1433 20.7367 18.5053C20.5621 18.8793 20.3329 19.225 20.0567 19.531C19.5656 20.074 19.0256 20.465 18.4122 20.7175C17.8122 20.97 17.1611 21.0996 16.4611 21.0996C15.4389 21.0996 14.3478 20.8583 13.1945 20.3667C11.9752 19.8351 10.8197 19.1665 9.75002 18.3734C8.58666 17.5189 7.48876 16.5777 6.46557 15.5578C5.45326 14.5346 4.51947 13.4358 3.67224 12.2708C2.89362 11.2045 2.23479 10.0549 1.70779 8.84288C1.22779 7.69207 0.987793 6.59712 0.987793 5.55356C0.987793 4.86977 1.10779 4.21727 1.34779 3.61393C1.58779 2.99942 1.97001 2.4363 2.50113 1.93351C3.14113 1.29889 3.84113 0.988281 4.58335 0.988281C4.86335 0.988281 5.14335 1.04861 5.39446 1.16928C5.65446 1.28995 5.88335 1.47095 6.06557 1.7324L8.39002 5.02173C8.56779 5.272 8.70113 5.5044 8.79001 5.72562C8.8789 5.93567 8.93002 6.14796 8.93002 6.3379C8.92713 6.59136 8.85402 6.83899 8.7189 7.05297C8.5646 7.31457 8.37627 7.5543 8.1589 7.76581L7.39668 8.56132C7.34366 8.61349 7.30205 8.67621 7.2745 8.74547C7.24695 8.81473 7.23407 8.889 7.23668 8.96355C7.23668 9.04176 7.24779 9.11327 7.26779 9.19371C7.29668 9.27416 7.32779 9.33449 7.34779 9.39483C7.52557 9.72778 7.83668 10.1591 8.2789 10.682C8.73002 11.2049 9.21002 11.7389 9.73002 12.2708C10.2722 12.8048 10.7922 13.2964 11.3233 13.7501C11.8433 14.1903 12.2745 14.4919 12.6145 14.6729L12.7967 14.7556C12.8765 14.7843 12.9609 14.7979 13.0456 14.7958C13.1222 14.7975 13.1984 14.7831 13.2692 14.7534C13.34 14.7238 13.4038 14.6796 13.4567 14.6238L14.2167 13.8685C14.4678 13.6182 14.7078 13.4283 14.9389 13.3054C15.1514 13.1692 15.398 13.0963 15.65 13.0953C15.8604 13.0984 16.068 13.1432 16.2611 13.2272C16.4811 13.3165 16.7122 13.4461 16.9611 13.6182L20.2767 15.9824C20.5169 16.1396 20.708 16.3619 20.8278 16.6237C20.9317 16.8721 20.986 17.1386 20.9878 17.4081V17.4081Z" stroke="#A35A00" stroke-width="1.97587" stroke-miterlimit="10"/>
</svg>
