<svg width="16" height="16" viewBox="0 0 16 16" fill="none" xmlns="http://www.w3.org/2000/svg">
<path d="M14.4001 12.0501C14.4001 12.2805 14.3489 12.518 14.2394 12.7484C14.1276 12.9865 13.981 13.2065 13.8042 13.4012C13.4899 13.7468 13.1443 13.9957 12.7517 14.1564C12.3677 14.3171 11.951 14.3996 11.503 14.3996C10.8488 14.3996 10.1505 14.246 9.41236 13.9331C8.63202 13.5948 7.8925 13.1692 7.20792 12.6645C6.46337 12.1206 5.76071 11.5216 5.10588 10.8725C4.45799 10.2213 3.86037 9.52191 3.31814 8.78041C2.81983 8.10181 2.39818 7.37012 2.0609 6.59872C1.7537 5.86628 1.6001 5.16939 1.6001 4.50521C1.6001 4.07001 1.6769 3.65472 1.8305 3.27072C1.9841 2.87961 2.22872 2.52121 2.56863 2.20121C2.97823 1.7973 3.42623 1.59961 3.90125 1.59961C4.08045 1.59961 4.25965 1.63801 4.42036 1.71481C4.58676 1.79161 4.73325 1.90681 4.84988 2.07321L6.33752 4.16672C6.4513 4.32601 6.53663 4.47392 6.59352 4.61472C6.65041 4.74841 6.68312 4.88352 6.68312 5.00441C6.68127 5.16572 6.63449 5.32333 6.54801 5.45952C6.44925 5.62602 6.32872 5.7786 6.18961 5.91321L5.70179 6.41952C5.66785 6.45272 5.64122 6.49264 5.62359 6.53672C5.60596 6.5808 5.59771 6.62807 5.59939 6.67552C5.59939 6.7253 5.6065 6.77081 5.6193 6.82201C5.63779 6.87321 5.6577 6.91161 5.6705 6.95001C5.78428 7.16192 5.98339 7.43641 6.26641 7.76921C6.55512 8.10201 6.86232 8.44192 7.19512 8.78041C7.54214 9.12032 7.87494 9.43321 8.21485 9.72192C8.54765 10.0021 8.82357 10.1941 9.04117 10.3093L9.15779 10.3619C9.20886 10.3801 9.26286 10.3888 9.31708 10.3875C9.36614 10.3886 9.41488 10.3794 9.46018 10.3605C9.50549 10.3417 9.54636 10.3136 9.58019 10.278L10.0666 9.7973C10.2273 9.63801 10.3809 9.51712 10.5288 9.4389C10.6648 9.35222 10.8226 9.30587 10.9839 9.30521C11.1185 9.3072 11.2514 9.33571 11.375 9.38912C11.5158 9.44601 11.6637 9.5285 11.823 9.63801L13.945 11.1427C14.0987 11.2427 14.221 11.3843 14.2977 11.5509C14.3642 11.709 14.399 11.8786 14.4001 12.0501V12.0501Z" stroke="#36080A" stroke-width="1.04" stroke-miterlimit="10"/>
</svg>
