<svg width="16" height="16" viewBox="0 0 16 16" fill="none" xmlns="http://www.w3.org/2000/svg">
<path d="M12.7418 14.0152C12.7418 15.1106 11.8539 15.9992 10.7576 15.9992C9.66138 15.9992 8.77344 15.1114 8.77344 14.0152C8.77344 12.9191 9.66138 12.0312 10.7576 12.0312C11.8539 12.0312 12.7418 12.9199 12.7418 14.0152Z" fill="#36080A"/>
<path d="M1.93681 7.52619C1.94375 7.91188 1.94838 8.2968 1.86043 8.66784C1.82649 8.81054 1.78174 8.95016 1.72157 9.08438C1.57499 9.41454 1.33121 9.69455 0.994859 9.83957C0.789652 9.92751 0.565929 9.96222 0.34375 9.96222C0.34375 9.96222 1.2911 14.3714 8.81511 14.1115C12.6006 14.0991 15.6649 11.0167 15.6618 7.21764C15.6602 5.26296 14.8132 3.36922 13.352 2.06944C11.8354 0.720292 9.74394 0.0977867 7.73661 0.422538C6.4182 0.63544 5.15995 1.22863 4.1694 2.12729C3.37249 2.85008 2.74761 3.76339 2.37422 4.77236C2.13816 5.40952 2.00315 6.0814 1.94761 6.75713C1.92678 7.01168 1.93218 7.26855 1.93604 7.52619H1.93681Z" fill="white"/>
<path d="M7.22529 6.27959C6.80176 6.28345 6.44843 5.94327 6.44535 5.52826C6.44149 5.11558 6.77476 4.7754 7.18749 4.76768C7.62722 4.76074 7.98209 5.10246 7.979 5.52826C7.97514 5.93941 7.63647 6.27573 7.22606 6.27959" fill="#36080A"/>
<path d="M12.09 6.27959C11.6665 6.28345 11.3132 5.94327 11.3101 5.52826C11.3062 5.11558 11.6395 4.7754 12.0522 4.76768C12.492 4.76074 12.8468 5.10246 12.8437 5.52826C12.8399 5.93941 12.5012 6.27573 12.0908 6.27959" fill="#36080A"/>
<mask id="mask0_10199_39007" style="mask-type:luminance" maskUnits="userSpaceOnUse" x="0" y="0" width="16" height="16">
<path d="M16 0H0V15.9985H16V0Z" fill="white"/>
</mask>
<g mask="url(#mask0_10199_39007)">
<path d="M1.93681 7.52619C1.94375 7.91188 1.94838 8.2968 1.86043 8.66784C1.82649 8.81054 1.78174 8.95016 1.72157 9.08438C1.57499 9.41454 1.33121 9.69455 0.994859 9.83957C0.789652 9.92751 0.565929 9.96222 0.34375 9.96222C0.34375 9.96222 1.2911 14.3714 8.81511 14.1115C12.6006 14.0991 15.6649 11.0167 15.6618 7.21764C15.6602 5.26296 14.8132 3.36922 13.352 2.06944C11.8354 0.720292 9.74394 0.0977867 7.73661 0.422538C6.4182 0.63544 5.15995 1.22863 4.1694 2.12729C3.37249 2.85008 2.74761 3.76339 2.37422 4.77236C2.13816 5.40952 2.00315 6.0814 1.94761 6.75713C1.92678 7.01168 1.93218 7.26855 1.93604 7.52619H1.93681Z" stroke="#36080A" stroke-width="0.666667" stroke-linecap="round" stroke-linejoin="round"/>
</g>
<path d="M7.15587 14.0152C7.15587 15.1106 6.26792 15.9992 5.17168 15.9992C4.07545 15.9992 3.1875 15.1114 3.1875 14.0152C3.1875 12.9191 4.07545 12.0312 5.17168 12.0312C6.26792 12.0312 7.15587 12.9199 7.15587 14.0152Z" fill="#36080A"/>
<path d="M12.1947 8.3125C12.1947 8.3125 11.4125 10.0149 9.61421 9.98486C7.81595 10.0149 7.03369 8.3125 7.03369 8.3125" stroke="#36080A" stroke-width="0.666667" stroke-linecap="round" stroke-linejoin="round"/>
</svg>
