<svg width="30" height="30" viewBox="0 0 30 30" fill="none" xmlns="http://www.w3.org/2000/svg">
<path d="M20.1246 27.1372C16.2586 27.1372 13.1246 24.0162 13.1246 20.1663C13.1246 16.3163 16.2586 13.1953 20.1246 13.1953C23.9906 13.1953 27.1246 16.3163 27.1246 20.1663C27.1246 24.0162 23.9906 27.1372 20.1246 27.1372Z" fill="url(#paint0_linear_10185_12634)"/>
<path d="M3.62451 29.7513C1.76055 29.7513 0.24951 28.2465 0.24951 26.3903C0.24951 24.5341 1.76055 23.0293 3.62451 23.0293C5.48847 23.0293 6.99951 24.5341 6.99951 26.3903C6.99951 28.2465 5.48847 29.7513 3.62451 29.7513Z" fill="url(#paint1_linear_10185_12634)"/>
<path d="M20.125 30.0001C25.625 30.0001 30 25.5188 30 20.1661C30 14.8134 25.5 10.332 20.125 10.332C14.75 10.332 10.25 14.8134 10.25 20.1661C10.25 25.5188 14.75 30.0001 20.125 30.0001ZM20.125 11.0789C25.125 11.0789 29.25 15.1868 29.25 20.1661C29.25 25.1453 25.125 29.2532 20.125 29.2532C15.125 29.2532 11 25.1453 11 20.1661C11 15.1868 15.125 11.0789 20.125 11.0789Z" fill="#36080A"/>
<path d="M3.75 30.0001C5.75 30.0001 7.5 28.3819 7.5 26.2657C7.5 24.1495 5.875 22.5312 3.75 22.5312C1.625 22.5312 0 24.1495 0 26.2657C0 28.3819 1.625 30.0001 3.75 30.0001ZM3.75 23.4026C5.375 23.4026 6.625 24.6474 6.625 26.2657C6.625 27.8839 5.375 29.1288 3.75 29.1288C2.125 29.1288 0.875001 27.8839 0.875001 26.2657C0.875001 24.6474 2.125 23.4026 3.75 23.4026Z" fill="#36080A"/>
<path d="M3.75037 27.885C4.62537 27.885 5.37537 27.1381 5.37537 26.2667C5.37537 25.3953 4.62537 24.6484 3.75037 24.6484C2.87537 24.6484 2.12537 25.3953 2.12537 26.2667C2.12537 27.1381 2.87537 27.885 3.75037 27.885ZM3.75037 25.5198C4.12537 25.5198 4.50037 25.8932 4.50037 26.2667C4.50037 26.6401 4.12537 27.0136 3.75037 27.0136C3.37537 27.0136 3.00037 26.6401 3.00037 26.2667C3.00037 25.8932 3.37537 25.5198 3.75037 25.5198Z" fill="#36080A"/>
<path d="M20.1251 27.635C24.2501 27.635 27.6251 24.274 27.6251 20.1661C27.6251 16.0583 24.2501 12.6973 20.1251 12.6973C16.0001 12.6973 12.6251 16.0583 12.6251 20.1661C12.6251 24.274 16.0001 27.635 20.1251 27.635ZM20.1251 13.5686C23.7501 13.5686 26.7501 16.5562 26.7501 20.1661C26.7501 23.7761 23.7501 26.7637 20.1251 26.7637C16.5001 26.7637 13.5001 23.7761 13.5001 20.1661C13.5001 16.5562 16.5001 13.5686 20.1251 13.5686Z" fill="#36080A"/>
<path d="M20.1246 22.779C21.6246 22.779 22.7496 21.6587 22.7496 20.1649C22.7496 18.6711 21.6246 17.5508 20.1246 17.5508C18.6246 17.5508 17.4996 18.6711 17.4996 20.1649C17.4996 21.6587 18.6246 22.779 20.1246 22.779ZM20.1246 18.4222C21.1246 18.4222 21.8746 19.169 21.8746 20.1649C21.8746 21.1607 21.1246 21.9076 20.1246 21.9076C19.1246 21.9076 18.3746 21.1607 18.3746 20.1649C18.3746 19.169 19.1246 18.4222 20.1246 18.4222Z" fill="#36080A"/>
<path d="M3.75073 23.03H4.62573V15.4366C4.62573 14.0674 5.75073 12.8225 7.25073 12.8225H14.6257V11.9512H7.25073C5.37573 11.9512 3.87573 13.4449 3.87573 15.3122V22.9055L3.75073 23.03Z" fill="#36080A"/>
<path d="M4.12512 15.9336H11.3751V16.805H4.12512V15.9336Z" fill="#36080A"/>
<path d="M21.5006 10.9544H22.3756V3.361L25.1256 0.622407L24.5006 0L21.6256 2.86307C21.6256 2.86307 21.6256 2.98755 21.6256 3.11203V10.9544H21.5006Z" fill="#36080A"/>
<path d="M10.2506 9.21048H22.0006C22.2506 9.21048 22.3756 8.96152 22.3756 8.83704V5.72501C22.3756 5.47604 22.1256 5.35156 22.0006 5.35156H13.5006C11.5006 5.35156 10.0006 6.96982 10.0006 8.83704C10.0625 9.21048 10.3756 9.21048 10.3756 9.21048H10.2506ZM21.5006 8.33911H10.6256C10.8756 7.0943 12.0006 6.09845 13.2506 6.09845H21.3756V8.33911H21.5006Z" fill="#36080A"/>
<defs>
<linearGradient id="paint0_linear_10185_12634" x1="15.7496" y1="25.7679" x2="24.3299" y2="14.6545" gradientUnits="userSpaceOnUse">
<stop stop-color="#FFB490"/>
<stop offset="0.5" stop-color="#F18477"/>
<stop offset="1" stop-color="#D2232A"/>
</linearGradient>
<linearGradient id="paint1_linear_10185_12634" x1="1.74951" y1="28.631" x2="5.97818" y2="23.3855" gradientUnits="userSpaceOnUse">
<stop stop-color="#FFB490"/>
<stop offset="0.5" stop-color="#F18477"/>
<stop offset="1" stop-color="#D2232A"/>
</linearGradient>
</defs>
</svg>
